HIERARCHY
ROOT Hips
{
  OFFSET -19.7551 93.6229 7.75578
  CHANNELS 6 Xposition Yposition Zposition Zrotation Xrotation Yrotation
  JOINT Spine
  {
    OFFSET 0 8.59463 0
    CHANNELS 6 Xposition Yposition Zposition Zrotation Xrotation Yrotation
    JOINT Spine1
    {
      OFFSET 0 8.59463 0
      CHANNELS 6 Xposition Yposition Zposition Zrotation Xrotation Yrotation
      JOINT Spine2
      {
        OFFSET 0 8.59463 0
        CHANNELS 6 Xposition Yposition Zposition Zrotation Xrotation Yrotation
        JOINT Spine3
        {
          OFFSET 0 8.59463 0
          CHANNELS 6 Xposition Yposition Zposition Zrotation Xrotation Yrotation
          JOINT Neck
          {
            OFFSET 0 18.2636 0
            CHANNELS 6 Xposition Yposition Zposition Zrotation Xrotation Yrotation
            JOINT Head
            {
              OFFSET 0 11.6027 0
              CHANNELS 6 Xposition Yposition Zposition Zrotation Xrotation Yrotation
              End Site
              {
                OFFSET 0 21.7552 0
              }
            }
          }
          JOINT LeftShoulder
          {
            OFFSET 5 17 0
            CHANNELS 6 Xposition Yposition Zposition Zrotation Xrotation Yrotation
            JOINT LeftShoulder2
            {
              OFFSET 7.25 0 0
              CHANNELS 6 Xposition Yposition Zposition Zrotation Xrotation Yrotation
              JOINT LeftArm
              {
                OFFSET 7.25 0 0
                CHANNELS 6 Xposition Yposition Zposition Zrotation Xrotation Yrotation
                JOINT LeftForeArm
                {
                  OFFSET 0 -30.1395 -2
                  CHANNELS 6 Xposition Yposition Zposition Zrotation Xrotation Yrotation
                  JOINT LeftHand
                  {
                    OFFSET 0 -23.8605 2
                    CHANNELS 6 Xposition Yposition Zposition Zrotation Xrotation Yrotation
                    JOINT LeftHandThumb1
                    {
                      OFFSET -0.5 -1.5 2.65
                      CHANNELS 6 Xposition Yposition Zposition Zrotation Xrotation Yrotation
                      JOINT LeftHandThumb2
                      {
                        OFFSET 0 -3.8 3.7
                        CHANNELS 6 Xposition Yposition Zposition Zrotation Xrotation Yrotation
                        JOINT LeftHandThumb3
                        {
                          OFFSET 0 -3 2.7
                          CHANNELS 6 Xposition Yposition Zposition Zrotation Xrotation Yrotation
                          End Site
                          {
                            OFFSET 0 -2.3 1.8
                          }
                        }
                      }
                    }
                    JOINT LeftHandIndex
                    {
                      OFFSET 0 -1.9 1.6
                      CHANNELS 6 Xposition Yposition Zposition Zrotation Xrotation Yrotation
                      JOINT LeftHandIndex1
                      {
                        OFFSET 0 -8.3 1.9
                        CHANNELS 6 Xposition Yposition Zposition Zrotation Xrotation Yrotation
                        JOINT LeftHandIndex2
                        {
                          OFFSET 0 -4.5 0
                          CHANNELS 6 Xposition Yposition Zposition Zrotation Xrotation Yrotation
                          JOINT LeftHandIndex3
                          {
                            OFFSET 0 -3.4 0
                            CHANNELS 6 Xposition Yposition Zposition Zrotation Xrotation Yrotation
                            End Site
                            {
                              OFFSET 0 -2.6 0
                            }
                          }
                        }
                      }
                    }
                    JOINT LeftHandMiddle
                    {
                      OFFSET -0.25 -2.2 0.4
                      CHANNELS 6 Xposition Yposition Zposition Zrotation Xrotation Yrotation
                      JOINT LeftHandMiddle1
                      {
                        OFFSET 0 -8.3 1
                        CHANNELS 6 Xposition Yposition Zposition Zrotation Xrotation Yrotation
                        JOINT LeftHandMiddle2
                        {
                          OFFSET 0 -4.65 0
                          CHANNELS 6 Xposition Yposition Zposition Zrotation Xrotation Yrotation
                          JOINT LeftHandMiddle3
                          {
                            OFFSET 0 -3.3 0
                            CHANNELS 6 Xposition Yposition Zposition Zrotation Xrotation Yrotation
                            End Site
                            {
                              OFFSET 0 -2.7 0
                            }
                          }
                        }
                      }
                    }
                    JOINT LeftHandRing
                    {
                      OFFSET -0.5 -2.15 -0.8
                      CHANNELS 6 Xposition Yposition Zposition Zrotation Xrotation Yrotation
                      JOINT LeftHandRing1
                      {
                        OFFSET 0 -7.75 -0.2
                        CHANNELS 6 Xposition Yposition Zposition Zrotation Xrotation Yrotation
                        JOINT LeftHandRing2
                        {
                          OFFSET 0 -3.8 0
                          CHANNELS 6 Xposition Yposition Zposition Zrotation Xrotation Yrotation
                          JOINT LeftHandRing3
                          {
                            OFFSET 0 -3.4 0
                            CHANNELS 6 Xposition Yposition Zposition Zrotation Xrotation Yrotation
                            End Site
                            {
                              OFFSET 0 -2.6 0
                            }
                          }
                        }
                      }
                    }
                    JOINT LeftHandPinky
                    {
                      OFFSET -0.75 -1.75 -1.85
                      CHANNELS 6 Xposition Yposition Zposition Zrotation Xrotation Yrotation
                      JOINT LeftHandPinky1
                      {
                        OFFSET 0 -7.15 -1
                        CHANNELS 6 Xposition Yposition Zposition Zrotation Xrotation Yrotation
                        JOINT LeftHandPinky2
                        {
                          OFFSET 0 -3 0
                          CHANNELS 6 Xposition Yposition Zposition Zrotation Xrotation Yrotation
                          JOINT LeftHandPinky3
                          {
                            OFFSET 0 -2.35 0
                            CHANNELS 6 Xposition Yposition Zposition Zrotation Xrotation Yrotation
                            End Site
                            {
                              OFFSET 0 -2.1 0
                            }
                          }
                        }
                      }
                    }
                  }
                }
              }
            }
          }
          JOINT RightShoulder
          {
            OFFSET -5 17 0
            CHANNELS 6 Xposition Yposition Zposition Zrotation Xrotation Yrotation
            JOINT RightShoulder2
            {
              OFFSET -7.25 0 0
              CHANNELS 6 Xposition Yposition Zposition Zrotation Xrotation Yrotation
              JOINT RightArm
              {
                OFFSET -7.25 0 0
                CHANNELS 6 Xposition Yposition Zposition Zrotation Xrotation Yrotation
                JOINT RightForeArm
                {
                  OFFSET 0 -30.1395 -2
                  CHANNELS 6 Xposition Yposition Zposition Zrotation Xrotation Yrotation
                  JOINT RightHand
                  {
                    OFFSET 0 -23.8605 2
                    CHANNELS 6 Xposition Yposition Zposition Zrotation Xrotation Yrotation
                    JOINT RightHandThumb1
                    {
                      OFFSET 0.5 -1.5 2.65
                      CHANNELS 6 Xposition Yposition Zposition Zrotation Xrotation Yrotation
                      JOINT RightHandThumb2
                      {
                        OFFSET 0 -3.8 3.7
                        CHANNELS 6 Xposition Yposition Zposition Zrotation Xrotation Yrotation
                        JOINT RightHandThumb3
                        {
                          OFFSET 0 -3 2.7
                          CHANNELS 6 Xposition Yposition Zposition Zrotation Xrotation Yrotation
                          End Site
                          {
                            OFFSET 0 -2.3 1.8
                          }
                        }
                      }
                    }
                    JOINT RightHandIndex
                    {
                      OFFSET 0 -1.9 1.6
                      CHANNELS 6 Xposition Yposition Zposition Zrotation Xrotation Yrotation
                      JOINT RightHandIndex1
                      {
                        OFFSET 0 -8.3 1.9
                        CHANNELS 6 Xposition Yposition Zposition Zrotation Xrotation Yrotation
                        JOINT RightHandIndex2
                        {
                          OFFSET 0 -4.5 0
                          CHANNELS 6 Xposition Yposition Zposition Zrotation Xrotation Yrotation
                          JOINT RightHandIndex3
                          {
                            OFFSET 0 -3.4 0
                            CHANNELS 6 Xposition Yposition Zposition Zrotation Xrotation Yrotation
                            End Site
                            {
                              OFFSET 0 -2.6 0
                            }
                          }
                        }
                      }
                    }
                    JOINT RightHandMiddle
                    {
                      OFFSET 0.25 -2.2 0.4
                      CHANNELS 6 Xposition Yposition Zposition Zrotation Xrotation Yrotation
                      JOINT RightHandMiddle1
                      {
                        OFFSET 0 -8.3 1
                        CHANNELS 6 Xposition Yposition Zposition Zrotation Xrotation Yrotation
                        JOINT RightHandMiddle2
                        {
                          OFFSET 0 -4.65 0
                          CHANNELS 6 Xposition Yposition Zposition Zrotation Xrotation Yrotation
                          JOINT RightHandMiddle3
                          {
                            OFFSET 0 -3.3 0
                            CHANNELS 6 Xposition Yposition Zposition Zrotation Xrotation Yrotation
                            End Site
                            {
                              OFFSET 0 -2.7 0
                            }
                          }
                        }
                      }
                    }
                    JOINT RightHandRing
                    {
                      OFFSET 0.5 -2.15 -0.8
                      CHANNELS 6 Xposition Yposition Zposition Zrotation Xrotation Yrotation
                      JOINT RightHandRing1
                      {
                        OFFSET 0 -7.75 -0.2
                        CHANNELS 6 Xposition Yposition Zposition Zrotation Xrotation Yrotation
                        JOINT RightHandRing2
                        {
                          OFFSET 0 -3.8 0
                          CHANNELS 6 Xposition Yposition Zposition Zrotation Xrotation Yrotation
                          JOINT RightHandRing3
                          {
                            OFFSET 0 -3.4 0
                            CHANNELS 6 Xposition Yposition Zposition Zrotation Xrotation Yrotation
                            End Site
                            {
                              OFFSET 0 -2.6 0
                            }
                          }
                        }
                      }
                    }
                    JOINT RightHandPinky
                    {
                      OFFSET 0.75 -1.75 -1.85
                      CHANNELS 6 Xposition Yposition Zposition Zrotation Xrotation Yrotation
                      JOINT RightHandPinky1
                      {
                        OFFSET 0 -7.15 -1
                        CHANNELS 6 Xposition Yposition Zposition Zrotation Xrotation Yrotation
                        JOINT RightHandPinky2
                        {
                          OFFSET 0 -3 0
                          CHANNELS 6 Xposition Yposition Zposition Zrotation Xrotation Yrotation
                          JOINT RightHandPinky3
                          {
                            OFFSET 0 -2.35 0
                            CHANNELS 6 Xposition Yposition Zposition Zrotation Xrotation Yrotation
                            End Site
                            {
                              OFFSET 0 -2.1 0
                            }
                          }
                        }
                      }
                    }
                  }
                }
              }
            }
          }
        }
      }
    }
  }
  JOINT LeftUpLeg
  {
    OFFSET 12.5 0 0
    CHANNELS 6 Xposition Yposition Zposition Zrotation Xrotation Yrotation
    JOINT LeftLeg
    {
      OFFSET 0 -45.2616 -1
      CHANNELS 6 Xposition Yposition Zposition Zrotation Xrotation Yrotation
      JOINT LeftFoot
      {
        OFFSET 0 -41.2384 -2
        CHANNELS 6 Xposition Yposition Zposition Zrotation Xrotation Yrotation
        JOINT LeftToeBase
        {
          OFFSET 0 -7.5 12.5
          CHANNELS 6 Xposition Yposition Zposition Zrotation Xrotation Yrotation
          JOINT LeftFootToe
          {
            OFFSET 0 0 4
            CHANNELS 6 Xposition Yposition Zposition Zrotation Xrotation Yrotation
            End Site
            {
              OFFSET 0 0 0
            }
          }
        }
      }
    }
  }
  JOINT RightUpLeg
  {
    OFFSET -12.5 0 0
    CHANNELS 6 Xposition Yposition Zposition Zrotation Xrotation Yrotation
    JOINT RightLeg
    {
      OFFSET 0 -45.2616 -1
      CHANNELS 6 Xposition Yposition Zposition Zrotation Xrotation Yrotation
      JOINT RightFoot
      {
        OFFSET 0 -41.2384 -2
        CHANNELS 6 Xposition Yposition Zposition Zrotation Xrotation Yrotation
        JOINT RightToeBase
        {
          OFFSET 0 -7.5 12.5
          CHANNELS 6 Xposition Yposition Zposition Zrotation Xrotation Yrotation
          JOINT RightFootToe
          {
            OFFSET 0 0 4
            CHANNELS 6 Xposition Yposition Zposition Zrotation Xrotation Yrotation
            End Site
            {
              OFFSET 0 0 0
            }
          }
        }
      }
    }
  }
}
MOTION
Frames:	3
Frame Time:	0.0111111
-24.2385 93.4867 17.1335 -21.2438 -11.4986 129.719 0 8.59463 0 -6.14618 32.0007 15.291 -7.10543e-15 8.59463 -1.42109e-14 2.88226 9.06975 -2.69064 3.55271e-15 8.59463 1.42109e-14 1.38467 4.55873 -1.29185 0 8.59463 -1.42109e-14 1.38159 4.54235 -1.28681 3.55271e-15 18.2636 -1.42109e-14 0.0330413 -5.39791 0.423048 0 11.6027 0 0.142003 -12.5921 1.01051 5 17 -1.42109e-14 6.67508 0.321488 -2.70114 7.25 -7.10543e-15 0 -2.71982 -5.0719 -4.40109 7.25 0 0 7.72319 -12.1107 -5.91948 0 -30.1395 -2 -20.2655 -20.0931 -3.22994 0 -23.8605 2 12.5111 -1.6576 -7.68586 -0.5 -1.5 2.65 9.28373 -27.2609 1.66034 0 -3.8 3.7 -0.0367667 23.7483 -3.47479e-15 0 -3 2.7 -1.00779e-14 39.838 8.28422e-15 -1.77636e-15 -1.9 1.6 -6.36111e-15 2.38542e-15 -0 0 -8.3 1.9 -0.318732 -0.110569 -0.00691569 -3.55271e-15 -4.5 0 -1.76556e-31 -3.18055e-15 -3.18055e-15 -3.55271e-15 -3.4 0 -0 -1.59028e-15 -0 -0.25 -2.2 0.4 -6.36111e-15 2.38542e-15 -0 -3.55271e-15 -8.3 1 -0.475606 -0.120577 -0 0 -4.65 0 -4.82967e-05 -3.12323e-09 1.47393e-10 3.55271e-15 -3.3 0 3.18055e-15 -4.77083e-15 6.36111e-15 -0.5 -2.15 -0.8 -6.36111e-15 2.38542e-15 -0 -1.77636e-15 -7.75 -0.2 -0.739162 -0.133457 3.18056e-15 -3.55271e-15 -3.8 0 -1.76556e-31 3.18055e-15 3.18055e-15 1.77636e-15 -3.4 0 3.18055e-15 -6.36111e-15 3.18055e-15 -0.75 -1.75 -1.85 -6.36111e-15 2.38542e-15 -0 -3.55271e-15 -7.15 -1 -0.872706 -0.140925 -3.07755e-10 -3.55271e-15 -3 1.42109e-14 -0.000174992 -5.95168e-09 -2.60805e-13 1.77636e-15 -2.35 -1.42109e-14 -9.54166e-15 -1.59028e-15 3.18055e-15 -5 17 0 -6.36329 -0.478201 3.30165 -7.25 0 1.42109e-14 0.37448 -1.15856 -0.625617 -7.25 0 0 -4.19989 -7.13626 -1.23512 -3.55271e-15 -30.1395 -2 3.44844 -21.746 7.04735 1.77636e-15 -23.8605 2 -8.41713 -7.55635 4.13704 0.5 -1.5 2.65 -3.44904 -30.2864 -4.91277 1.77636e-15 -3.8 3.7 1.28351e-14 29.542 -3.65583e-15 -1.77636e-15 -3 2.7 3.60874e-14 53.8584 -2.69638e-14 1.77636e-15 -1.9 1.6 1.43125e-14 -3.18055e-15 -0 1.77636e-15 -8.3 1.9 13.7933 1.77803 -0.293803 3.55271e-15 -4.5 0 0.635822 -6.34966e-11 -3.30142e-12 3.55271e-15 -3.4 0 0.630282 -6.3503e-11 -3.3046e-12 0.25 -2.2 0.4 1.43125e-14 -3.18055e-15 -0 -1.77636e-15 -8.3 1 10.8667 1.09811 -0.160785 -3.55271e-15 -4.65 1.42109e-14 9.25367 3.18055e-15 -0 -3.55271e-15 -3.3 0 8.22779 3.18055e-15 -3.18055e-15 0.5 -2.15 -0.8 1.43125e-14 -3.18055e-15 -0 0 -7.75 -0.2 5.24546 -0.160796 -0.0130192 1.77636e-15 -3.8 0 3.24233 -2.5887e-08 4.45278e-14 -3.55271e-15 -3.4 1.42109e-14 3.10355 3.18055e-15 -6.36111e-15 0.75 -1.75 -1.85 1.43125e-14 -3.18055e-15 -0 1.77636e-15 -7.15 -1 2.3722 -0.851268 0.000430075 -5.32907e-15 -3 0 1.47986 -2.0753e-08 1.90833e-14 0 -2.35 0 1.45001 6.36111e-15 -0 12.5 -1.42109e-14 0 4.07563 -28.9577 56.9517 -7.10543e-15 -45.2616 -1 -0.108482 9.76587 2.48033 7.10543e-15 -41.2384 -2 -1.19484 -0.165347 -14.8137 0 -7.5 12.5 -1.61513e-16 9.93923e-17 -0 0 0 4 1.5665 0.885361 -57.7172 -12.5 0 -1.42109e-14 -3.02075 -39.4252 16.8296 -2.66454e-15 -45.2616 -1 -0.0953733 17.5347 0.784644 0 -41.2384 -2 2.40951 -1.58372 -7.42763 8.88178e-16 -7.5 12.5 -1.55301e-18 0 -9.54166e-15 0 4.33681e-19 4 -2.66413 0.259798 -26.8241 
-24.2392 93.4864 17.1327 -21.2441 -11.4889 129.691 -1.77636e-15 8.59463 0 -6.12611 31.9991 15.2982 0 8.59463 -1.42109e-14 2.88235 9.06943 -2.69103 -3.55271e-15 8.59463 -1.42109e-14 1.38559 4.55808 -1.29258 0 8.59463 -1.42109e-14 1.38207 4.54184 -1.28735 0 18.2636 1.42109e-14 0.027165 -5.39798 0.423747 0 11.6027 -1.42109e-14 0.126819 -12.5915 1.0069 5 17 0 6.66698 0.324463 -2.69683 7.25 0 0 -2.72029 -5.07212 -4.40126 7.25 0 -1.42109e-14 7.71053 -12.098 -5.91705 3.55271e-15 -30.1395 -2 -20.2758 -20.1084 -3.23787 -1.77636e-15 -23.8605 2 12.5104 -1.66934 -7.66146 -0.5 -1.5 2.65 9.31036 -27.2593 1.66023 3.55271e-15 -3.8 3.7 -0.0367667 23.7725 -3.47543e-15 0 -3 2.7 1.06096e-14 39.8262 -1.65656e-14 1.77636e-15 -1.9 1.6 -2.64834e-31 -4.77083e-15 -3.18055e-15 0 -8.3 1.9 -0.31871 -0.109817 -0.00691569 1.77636e-15 -4.5 0 3.18055e-15 -4.77083e-15 -0 -3.55271e-15 -3.4 0 -3.18055e-15 -4.77083e-15 3.18055e-15 -0.25 -2.2 0.4 -2.64834e-31 -4.77083e-15 -3.18055e-15 0 -8.3 1 -0.475339 -0.120813 -0 0 -4.65 0 -4.82967e-05 -3.12323e-09 1.47403e-10 -3.55271e-15 -3.3 0 3.18055e-15 1.59028e-15 -3.18055e-15 -0.5 -2.15 -0.8 -2.64834e-31 -4.77083e-15 -3.18055e-15 0 -7.75 -0.2 -0.740606 -0.136158 -3.18056e-15 0 -3.8 -1.42109e-14 -3.18055e-15 1.59028e-15 6.36111e-15 -1.77636e-15 -3.4 0 8.82781e-32 1.59028e-15 -3.18055e-15 -0.75 -1.75 -1.85 -2.64834e-31 -4.77083e-15 -3.18055e-15 -1.77636e-15 -7.15 -1 -0.877455 -0.14838 -3.07752e-10 1.77636e-15 -3 -1.42109e-14 -0.000174992 -5.95168e-09 -2.63986e-13 3.55271e-15 -2.35 -1.42109e-14 -9.54166e-15 7.95139e-15 -3.18055e-15 -5 17 0 -6.39391 -0.477295 3.30695 -7.25 7.10543e-15 0 0.38681 -1.16551 -0.63158 -7.25 0 1.42109e-14 -4.20181 -7.14052 -1.24776 -8.88178e-16 -30.1395 -2 3.45413 -21.7627 7.05446 -3.55271e-15 -23.8605 2 -8.43181 -7.5569 4.15771 0.5 -1.5 2.65 -3.4513 -30.2927 -4.9158 1.77636e-15 -3.8 3.7 9.01756e-15 29.5431 7.31175e-15 -1.77636e-15 -3 2.7 7.95139e-15 53.8596 -0 3.55271e-15 -1.9 1.6 1.43125e-14 0 -0 -1.77636e-15 -8.3 1.9 13.8051 1.77567 -0.294037 0 -4.5 1.42109e-14 0.635212 -6.35157e-11 -3.29824e-12 -3.55271e-15 -3.4 1.42109e-14 0.62968 -6.35061e-11 -3.29824e-12 0.25 -2.2 0.4 1.43125e-14 0 -0 1.77636e-15 -8.3 1 10.8767 1.09537 -0.160906 0 -4.65 -1.42109e-14 9.25847 3.18055e-15 -9.54166e-15 -3.55271e-15 -3.3 1.42109e-14 8.22768 1.59028e-15 -0 0.5 -2.15 -0.8 1.43125e-14 0 -0 -7.10543e-15 -7.75 -0.2 5.25252 -0.163342 -0.0130193 3.55271e-15 -3.8 0 3.24067 -2.5887e-08 5.08889e-14 0 -3.4 0 3.10266 -3.18055e-15 3.18055e-15 0.75 -1.75 -1.85 1.43125e-14 0 -0 0 -7.15 -1 2.37772 -0.855779 0.000430076 -3.55271e-15 -3 0 1.48125 -2.0753e-08 2.22639e-14 0 -2.35 1.42109e-14 1.45143 -6.36111e-15 -0 12.5 0 0 4.07972 -28.9559 56.8928 0 -45.2616 -1 -0.108949 9.77548 2.47844 0 -41.2384 -2 -1.2005 -0.177974 -14.7246 0 -7.5 12.5 1.36664e-16 -1.98785e-16 7.95139e-16 0 0 4 1.56485 0.881361 -57.717 -12.5 0 -1.42109e-14 -3.01183 -39.4174 16.8464 -8.88178e-16 -45.2616 -1 -0.0938917 17.5208 0.779621 0 -41.2384 -2 2.41098 -1.57227 -7.42039 2.66454e-15 -7.5 12.5 7.76503e-19 -1.55301e-18 6.36111e-15 -8.88178e-16 0 4 -2.65146 0.248255 -26.8243 
-24.2399 93.4861 17.1321 -21.2438 -11.4791 129.665 -3.55271e-15 8.59463 0 -6.10427 31.998 15.3041 3.55271e-15 8.59463 0 2.88288 9.0691 -2.69189 0 8.59463 1.42109e-14 1.38678 4.55745 -1.29368 -7.10543e-15 8.59463 -1.42109e-14 1.38259 4.54133 -1.28791 7.10543e-15 18.2636 0 0.0208856 -5.3982 0.424603 0 11.6027 0 0.111844 -12.5921 1.00338 5 17 -1.42109e-14 6.65988 0.328 -2.69591 7.25 0 0 -2.72076 -5.07234 -4.40141 7.25 0 1.42109e-14 7.70223 -12.0914 -5.92582 0 -30.1395 -2 -20.2779 -20.1209 -3.2361 1.77636e-15 -23.8605 2 12.5022 -1.68383 -7.63539 -0.5 -1.5 2.65 9.33431 -27.26 1.65094 -3.55271e-15 -3.8 3.7 -0.0367667 23.8031 -0 0 -3 2.7 -8.48041e-15 39.8169 -4.14084e-15 1.77636e-15 -1.9 1.6 -0 0 3.18055e-15 1.77636e-15 -8.3 1.9 -0.31869 -0.108602 -0.00691569 0 -4.5 0 -3.18055e-15 -1.11319e-14 -0 3.55271e-15 -3.4 0 3.18055e-15 3.18055e-15 -0 -0.25 -2.2 0.4 -0 0 3.18055e-15 0 -8.3 1 -0.475066 -0.120461 3.18056e-15 1.77636e-15 -4.65 0 -4.82967e-05 -3.12322e-09 1.474e-10 -1.77636e-15 -3.3 0 3.18055e-15 1.59028e-15 -6.36111e-15 -0.5 -2.15 -0.8 -0 0 3.18055e-15 0 -7.75 -0.2 -0.744313 -0.136938 3.18056e-15 0 -3.8 -1.42109e-14 -1.76556e-31 -1.59028e-15 -6.36111e-15 0 -3.4 -1.42109e-14 -0 -3.18055e-15 -0 -0.75 -1.75 -1.85 -0 0 3.18055e-15 1.77636e-15 -7.15 -1 -0.882406 -0.155915 -3.07752e-10 1.77636e-15 -3 0 -0.000174992 -5.95169e-09 -2.54444e-13 1.77636e-15 -2.35 -1.42109e-14 -3.18055e-15 -1.59028e-15 -3.18055e-15 -5 17 -1.42109e-14 -6.42449 -0.475933 3.31263 -7.25 0 0 0.398428 -1.17268 -0.639241 -7.25 7.10543e-15 -1.42109e-14 -4.20354 -7.14573 -1.26374 8.88178e-16 -30.1395 -2 3.4608 -21.7799 7.06413 -5.32907e-15 -23.8605 2 -8.44292 -7.55769 4.17468 0.5 -1.5 2.65 -3.45348 -30.2975 -4.91831 -3.55271e-15 -3.8 3.7 1.10325e-14 29.5512 -0 1.77636e-15 -3 2.7 2.41981e-14 53.861 -1.61793e-14 1.77636e-15 -1.9 1.6 1.59028e-14 -6.36111e-15 -3.18055e-15 0 -8.3 1.9 13.8181 1.77475 -0.294249 0 -4.5 1.42109e-14 0.634616 -6.3503e-11 -3.30142e-12 -3.55271e-15 -3.4 -1.42109e-14 0.629092 -6.34998e-11 -3.31414e-12 0.25 -2.2 0.4 1.59028e-14 -6.36111e-15 -3.18055e-15 3.55271e-15 -8.3 1 10.8884 1.09442 -0.161027 3.55271e-15 -4.65 0 9.26519 -3.18055e-15 9.54166e-15 0 -3.3 0 8.22758 0 -6.36111e-15 0.5 -2.15 -0.8 1.59028e-14 -6.36111e-15 -3.18055e-15 1.77636e-15 -7.75 -0.2 5.26224 -0.163564 -0.0130193 -1.77636e-15 -3.8 0 3.24076 -2.5887e-08 5.08889e-14 3.55271e-15 -3.4 0 3.10338 0 3.18055e-15 0.75 -1.75 -1.85 1.59028e-14 -6.36111e-15 -3.18055e-15 5.32907e-15 -7.15 -1 2.38638 -0.855624 0.000430076 0 -3 0 1.4831 -2.0753e-08 1.59028e-14 3.55271e-15 -2.35 0 1.45328 3.18055e-15 -3.18055e-15 12.5 -1.42109e-14 0 4.08514 -28.9543 56.8364 -7.10543e-15 -45.2616 -1 -0.109387 9.78637 2.47606 -7.10543e-15 -41.2384 -2 -1.20635 -0.191324 -14.6405 -7.10543e-15 -7.5 12.5 -2.75869e-33 -9.93923e-17 -1.59028e-15 0 2.22045e-16 4 1.56223 0.87705 -57.7168 -12.5 0 0 -3.00262 -39.4095 16.8639 0 -45.2616 -1 -0.0922336 17.5067 0.774457 8.88178e-16 -41.2384 -2 2.41228 -1.56127 -7.4146 -1.77636e-15 -7.5 12.5 4.31046e-35 7.76503e-19 -3.18055e-15 -8.88178e-16 -8.67362e-19 4 -2.64136 0.236375 -26.8244 
